<?xml version="1.0" encoding="UTF-8" standalone="no"?><!DOCTYPE svg PUBLIC "-//W3C//DTD SVG 1.1//EN" "http://www.w3.org/Graphics/SVG/1.1/DTD/svg11.dtd"><svg width="100%" height="100%" viewBox="0 0 443 346" version="1.1" xmlns="http://www.w3.org/2000/svg" xmlns:xlink="http://www.w3.org/1999/xlink" xml:space="preserve" xmlns:serif="http://www.serif.com/" style="fill-rule:evenodd;clip-rule:evenodd;stroke-linejoin:round;stroke-miterlimit:2;"><rect id="Artboard1" x="0" y="0" width="442.059" height="345.625" style="fill:none;"/><path class="small-cog" id="small-cog" d="M129.658,22.917l-0.004,14.387c7.949,1.482 15.438,4.3 22.232,8.216l9.108,-11.022l19.904,16.959l-9.117,11.028c5.011,6.16 9.04,13.174 11.843,20.795l13.947,-2.498l4.512,25.983l-13.966,2.5c-0.067,8.289 -1.502,16.246 -4.087,23.65l12.263,7.197l-12.992,22.849l-12.281,-7.2c-5.137,6.107 -11.256,11.338 -18.107,15.441l4.843,13.524l-24.416,9.024l-4.851,-13.521c-3.845,0.65 -7.795,0.989 -11.822,0.989c-4.029,-0 -7.979,-0.339 -11.826,-0.989l-4.848,13.521l-24.416,-9.024l4.85,-13.52c-6.854,-4.103 -12.975,-9.336 -18.114,-15.445l-12.281,7.2l-12.991,-22.849l12.265,-7.19c-2.65,-7.586 -4.092,-15.751 -4.092,-24.259l0.002,0.6l-13.966,-2.498l4.512,-25.983l13.947,2.498c2.803,-7.621 6.832,-14.635 11.843,-20.795l-9.117,-11.028l19.904,-16.959l9.111,11.021c6.792,-3.915 14.278,-6.732 22.223,-8.214l0.002,-14.388l25.983,-0Zm-12.991,39.575c-25.113,-0 -45.47,20.671 -45.47,46.171c0,25.5 20.357,46.171 45.47,46.171c25.112,0 45.469,-20.671 45.469,-46.171c0,-25.5 -20.357,-46.171 -45.469,-46.171Zm-0,19.787c14.349,0 25.982,11.813 25.982,26.384c0,14.571 -11.633,26.383 -25.982,26.383c-14.35,0 -25.983,-11.812 -25.983,-26.383c0,-14.571 11.633,-26.384 25.983,-26.384Z"/><path class="big-cog" id="big-cog" d="M309.411,91.667l-0.005,19.651c10.857,2.024 21.085,5.873 30.365,11.222l12.44,-15.055l27.186,23.164l-12.452,15.063c6.845,8.413 12.347,17.993 16.176,28.402l19.05,-3.412l6.162,35.489l-19.076,3.415c-0.091,11.321 -2.051,22.189 -5.582,32.303l16.749,9.829l-17.744,31.208l-16.775,-9.833c-7.017,8.341 -15.373,15.486 -24.731,21.09l6.615,18.472l-33.349,12.325l-6.625,-18.468c-5.253,0.888 -10.648,1.351 -16.148,1.351c-5.502,-0 -10.898,-0.463 -16.152,-1.351l-6.622,18.468l-33.348,-12.325l6.623,-18.466c-9.361,-5.605 -17.721,-12.752 -24.74,-21.096l-16.775,9.833l-17.744,-31.208l16.753,-9.82c-3.619,-10.361 -5.589,-21.514 -5.589,-33.134l0.002,0.819l-19.075,-3.412l6.163,-35.489l19.049,3.412c3.829,-10.409 9.332,-19.989 16.176,-28.402l-12.452,-15.063l27.186,-23.164l12.444,15.053c9.277,-5.347 19.501,-9.194 30.353,-11.219l0.003,-19.652l35.489,-0Zm-17.744,54.054c-34.3,-0 -62.105,28.234 -62.105,63.063c-0,34.828 27.805,63.063 62.105,63.063c34.299,-0 62.105,-28.235 62.105,-63.063c-0,-34.829 -27.806,-63.063 -62.105,-63.063Zm-0,27.027c19.599,-0 35.488,16.133 35.488,36.036c0,19.902 -15.889,36.036 -35.488,36.036c-19.6,-0 -35.489,-16.134 -35.489,-36.036c0,-19.903 15.889,-36.036 35.489,-36.036Z"/></svg>
